# xmcd
#
# Track frame offsets:
#	150
#	21140
#	41284
#	54350
#	73905
#
# Disc length: 1195 seconds
#
# Revision: 1
# Processed by: cddbd v1.5.1PL0 Copyright (c) Steve Scherf et al.
# Submitted via: CDex 1.50Beta5
#
DISCID=3a04a905
DTITLE=入日茜 - 水色の街
DYEAR=1900
DGENRE=Pop
TTITLE0=水色の街
TTITLE1=魂のうた
TTITLE2=真夜中の猫
TTITLE3=別れの情景
TTITLE4=檸檬
EXTD=
EXTT0=
EXTT1=
EXTT2=
EXTT3=
EXTT4=
PLAYORDER=
